<?xml version="1.0" encoding="utf-8"?>
<!-- Generator: Adobe Illustrator 26.1.0, SVG Export Plug-In . SVG Version: 6.00 Build 0)  -->
<svg version="1.1" id="Layer_1" xmlns="http://www.w3.org/2000/svg" xmlns:xlink="http://www.w3.org/1999/xlink" x="0px" y="0px"
	 viewBox="0 0 16 20" style="enable-background:new 0 0 16 20;" xml:space="preserve">
<style type="text/css">
	.st0{fill-rule:evenodd;clip-rule:evenodd;fill:#1D1D1D;}
</style>
<path id="notification" class="st0" d="M8,19.8c1.1,0,2-0.9,2-2H6C6,18.9,6.9,19.8,8,19.8z M14,13.8v-5c0-3.1-1.6-5.6-4.5-6.3V1.8
	C9.5,1,8.8,0.3,8,0.3S6.5,1,6.5,1.8v0.7C3.6,3.2,2,5.7,2,8.8v5l-1.3,1.3c-0.6,0.6-0.2,1.7,0.7,1.7h13.2c0.9,0,1.3-1.1,0.7-1.7
	L14,13.8z"/>
</svg>
